<mxfile host="65bd71144e">
    <diagram id="cHOKFQ9jGQOCWOcPr9lM" name="Page-1">
        <mxGraphModel dx="1523" dy="2043" grid="1" gridSize="10" guides="1" tooltips="1" connect="1" arrows="1" fold="1" page="1" pageScale="1" pageWidth="1654" pageHeight="1169" math="0" shadow="0">
            <root>
                <mxCell id="0"/>
                <mxCell id="1" parent="0"/>
                <mxCell id="5" value="" style="endArrow=none;dashed=1;html=1;strokeWidth=10;" parent="1" edge="1">
                    <mxGeometry width="50" height="50" relative="1" as="geometry">
                        <mxPoint x="1290" y="1124.75" as="sourcePoint"/>
                        <mxPoint x="1280" y="-20" as="targetPoint"/>
                    </mxGeometry>
                </mxCell>
                <mxCell id="9" value="Authentication" style="rounded=1;arcSize=10;strokeColor=none;fillColor=#DBDBDB;gradientColor=none;fontColor=#000000;fontSize=24;" parent="1" vertex="1">
                    <mxGeometry x="690" y="100.25" width="190" height="119.5" as="geometry"/>
                </mxCell>
                <mxCell id="10" value="Post service" style="rounded=1;arcSize=10;strokeColor=none;fillColor=#DBDBDB;gradientColor=none;fontColor=#000000;fontSize=24;" parent="1" vertex="1">
                    <mxGeometry x="685.25" y="710" width="199.5" height="199.5" as="geometry"/>
                </mxCell>
                <mxCell id="14" value="Post Database" style="strokeWidth=2;html=1;shape=mxgraph.flowchart.database;whiteSpace=wrap;fillColor=#f5f5f5;fontColor=#333333;strokeColor=#666666;fontSize=24;" parent="1" vertex="1">
                    <mxGeometry x="1360" y="700" width="170" height="250" as="geometry"/>
                </mxCell>
                <mxCell id="23" value="" style="outlineConnect=0;dashed=0;verticalLabelPosition=bottom;verticalAlign=top;align=center;html=1;shape=mxgraph.aws3.management_console;fillColor=#D2D3D3;gradientColor=none;fontSize=24;fontColor=#000000;" parent="1" vertex="1">
                    <mxGeometry x="50" y="515" width="140" height="140" as="geometry"/>
                </mxCell>
                <mxCell id="24" value="&lt;div style=&quot;&quot;&gt;&lt;span style=&quot;background-color: initial;&quot;&gt;user:&lt;/span&gt;&lt;/div&gt;password:" style="rounded=0;whiteSpace=wrap;html=1;fontSize=24;fontColor=#333333;fillColor=#f5f5f5;strokeColor=#666666;align=left;" parent="1" vertex="1">
                    <mxGeometry x="440" y="90" width="120" height="140" as="geometry"/>
                </mxCell>
                <mxCell id="25" value="&lt;div style=&quot;&quot;&gt;&lt;span style=&quot;background-color: initial;&quot;&gt;user:&lt;/span&gt;&lt;br&gt;&lt;/div&gt;password:" style="rounded=0;whiteSpace=wrap;html=1;fontSize=24;fontColor=#333333;fillColor=#f5f5f5;strokeColor=#666666;align=left;" parent="1" vertex="1">
                    <mxGeometry x="1000" y="90" width="120" height="140" as="geometry"/>
                </mxCell>
                <mxCell id="26" value="Register " style="rounded=1;arcSize=10;strokeColor=none;fillColor=#DBDBDB;gradientColor=none;fontColor=#000000;fontSize=24;" parent="1" vertex="1">
                    <mxGeometry x="680.5" y="270" width="199.5" height="119.5" as="geometry"/>
                </mxCell>
                <mxCell id="27" value="&lt;div style=&quot;&quot;&gt;&lt;span style=&quot;background-color: initial;&quot;&gt;display_name:&lt;br&gt;user:&lt;/span&gt;&lt;/div&gt;password:&lt;br&gt;email:&lt;br&gt;agreemant:" style="rounded=0;whiteSpace=wrap;html=1;fontSize=24;fontColor=#333333;fillColor=#f5f5f5;strokeColor=#666666;align=left;" parent="1" vertex="1">
                    <mxGeometry x="430" y="300" width="160" height="200" as="geometry"/>
                </mxCell>
                <mxCell id="29" value="&lt;div style=&quot;&quot;&gt;&lt;span style=&quot;background-color: initial;&quot;&gt;user_id:&lt;br&gt;display_name:&lt;br&gt;user:&lt;/span&gt;&lt;/div&gt;password:&lt;br&gt;email:&lt;br&gt;agreemant:&lt;br&gt;token:" style="rounded=0;whiteSpace=wrap;html=1;fontSize=24;fontColor=#333333;fillColor=#f5f5f5;strokeColor=#666666;align=left;" parent="1" vertex="1">
                    <mxGeometry x="990" y="300" width="160" height="250" as="geometry"/>
                </mxCell>
                <mxCell id="38" value="User Database" style="strokeWidth=2;html=1;shape=mxgraph.flowchart.database;whiteSpace=wrap;fillColor=#f5f5f5;fontColor=#333333;strokeColor=#666666;fontSize=24;" parent="1" vertex="1">
                    <mxGeometry x="1360" y="150" width="170" height="250" as="geometry"/>
                </mxCell>
                <mxCell id="40" value="" style="endArrow=none;dashed=1;html=1;strokeWidth=10;" parent="1" edge="1">
                    <mxGeometry width="50" height="50" relative="1" as="geometry">
                        <mxPoint x="340" y="1134.75" as="sourcePoint"/>
                        <mxPoint x="330" y="-10" as="targetPoint"/>
                    </mxGeometry>
                </mxCell>
                <mxCell id="42" value="Register " style="rounded=1;arcSize=10;strokeColor=none;fillColor=#DBDBDB;gradientColor=none;fontColor=#000000;fontSize=24;" vertex="1" parent="1">
                    <mxGeometry x="680.5" y="430" width="199.5" height="119.5" as="geometry"/>
                </mxCell>
            </root>
        </mxGraphModel>
    </diagram>
</mxfile>